<?xml version="1.0" standalone="no"?>
<!DOCTYPE svg PUBLIC "-//W3C//DTD SVG 20010904//EN"
 "http://www.w3.org/TR/2001/REC-SVG-20010904/DTD/svg10.dtd">
<svg version="1.0" xmlns="http://www.w3.org/2000/svg"
 width="120.000000pt" height="120.000000pt" viewBox="0 0 120.000000 120.000000"
 preserveAspectRatio="xMidYMid meet">
<metadata>
Created by potrace 1.14, written by Peter Selinger 2001-2017
</metadata>
<g transform="translate(0.000000,120.000000) scale(0.100000,-0.100000)"
fill="#000000" stroke="none">
<path d="M194 854 c-52 -18 -115 -78 -145 -135 -33 -62 -32 -176 0 -238 51
-97 126 -145 234 -148 81 -2 136 19 214 81 42 33 52 47 53 72 1 66 -63 83
-126 33 -79 -63 -130 -76 -187 -49 -43 21 -58 36 -75 73 -17 40 -15 82 7 125
39 75 125 95 206 47 25 -14 103 -84 173 -154 185 -186 245 -226 348 -230 244
-9 372 272 208 456 -47 51 -109 78 -189 80 -38 1 -74 -1 -80 -5 -5 -4 -16 -7
-23 -8 -21 -4 -121 -67 -144 -91 -36 -38 -22 -94 27 -113 23 -9 44 1 96 42 94
75 195 63 243 -30 48 -93 -19 -202 -124 -204 -60 -1 -115 38 -267 190 -145
144 -197 185 -260 208 -49 17 -137 16 -189 -2z"/>
</g>
</svg>
